<svg width="70" height="70" viewBox="0 0 70 70" fill="none" xmlns="http://www.w3.org/2000/svg">
<rect width="70" height="70" rx="10" fill="#EE4601"/>
<path d="M33.0756 54.3117C32.943 54.3117 32.8118 54.2842 32.6903 54.2311C32.5688 54.1779 32.4596 54.1002 32.3696 54.0028L13.3324 33.41C13.2055 33.2727 13.1213 33.1014 13.0903 32.917C13.0592 32.7327 13.0826 32.5432 13.1575 32.372C13.2324 32.2007 13.3556 32.0549 13.5121 31.9526C13.6686 31.8502 13.8515 31.7957 14.0384 31.7957H23.2019C23.3395 31.7958 23.4754 31.8253 23.6006 31.8823C23.7258 31.9394 23.8374 32.0226 23.9277 32.1264L30.29 39.446C30.9776 37.9762 32.3086 35.5289 34.6444 32.5468C38.0975 28.1381 44.5203 21.6544 55.5092 15.8013C55.7216 15.6882 55.9687 15.6589 56.2017 15.719C56.4346 15.7792 56.6366 15.9246 56.7676 16.1264C56.8987 16.3283 56.9492 16.5719 56.9094 16.8092C56.8696 17.0465 56.7422 17.2603 56.5525 17.4082C56.5105 17.441 52.2736 20.7776 47.3975 26.889C42.9098 32.513 36.9442 41.7092 34.0087 53.5813C33.9571 53.7899 33.8372 53.9752 33.668 54.1076C33.4989 54.2401 33.2902 54.3121 33.0753 54.3121L33.0756 54.3117Z" fill="#131313"/>
</svg>
