<svg width="70" height="70" viewBox="0 0 70 70" fill="none" xmlns="http://www.w3.org/2000/svg">
<path d="M0 65.3334H70V70H0V65.3334Z" fill="#F9F9F9"/>
<path d="M67.6667 0H46.6667C46.0478 0 45.4543 0.245833 45.0167 0.683417C44.5792 1.121 44.3333 1.71449 44.3333 2.33333V23.3333H49V16.3333H67.6667C68.2855 16.3333 68.879 16.0875 69.3166 15.6499C69.7542 15.2123 70 14.6188 70 14V2.33333C70 1.71449 69.7542 1.121 69.3166 0.683417C68.879 0.245833 68.2855 0 67.6667 0Z" fill="#F9F9F9"/>
<path d="M33.8333 40.8334C33.8333 39.9051 33.4646 39.0149 32.8082 38.3585C32.1518 37.7021 31.2616 37.3334 30.3333 37.3334H28C27.0717 37.3334 26.1815 37.7021 25.5251 38.3585C24.8687 39.0149 24.5 39.9051 24.5 40.8334V60.6667H33.8333V40.8334Z" fill="#F9F9F9"/>
<path d="M54.8333 31.5C54.8333 30.5717 54.4646 29.6815 53.8082 29.0251C53.1518 28.3687 52.2616 28 51.3333 28H42C41.0717 28 40.1815 28.3687 39.5251 29.0251C38.8688 29.6815 38.5 30.5717 38.5 31.5V60.6667H54.8333V31.5Z" fill="#F9F9F9"/>
<path d="M19.8333 50.1666C19.8333 49.2384 19.4646 48.3481 18.8082 47.6918C18.1518 47.0354 17.2616 46.6666 16.3333 46.6666H14C13.0717 46.6666 12.1815 47.0354 11.5251 47.6918C10.8687 48.3481 10.5 49.2384 10.5 50.1666V60.6666H19.8333V50.1666Z" fill="#F9F9F9"/>
</svg>
