<svg width="70" height="70" viewBox="0 0 70 70" fill="none" xmlns="http://www.w3.org/2000/svg">
<path d="M44.1987 0V8.30665H41.026C39.5751 8.27426 38.1624 8.77349 37.0539 9.71034C35.9453 10.6472 35.2174 11.957 35.0072 13.3933C34.9258 14.1876 35.0116 14.9902 35.2591 15.7494C35.5067 16.5085 35.9105 17.2074 36.4446 17.8009C36.9787 18.3944 37.6311 18.8695 38.3599 19.1954C39.0887 19.5213 39.8777 19.6909 40.6761 19.6933H44.1754V23.6133C44.1754 24.195 44.4064 24.7529 44.8176 25.1642C45.2289 25.5755 45.7867 25.8066 46.3682 25.8066H50.2874V28.9799C50.2558 30.4346 50.7582 31.8505 51.6996 32.9598C52.641 34.069 53.9562 34.7948 55.3964 34.9999C56.1906 35.0814 56.993 34.9956 57.752 34.748C58.511 34.5003 59.2097 34.0964 59.8031 33.5623C60.3965 33.0281 60.8715 32.3755 61.1973 31.6465C61.5232 30.9176 61.6928 30.1284 61.6951 29.3299V25.8299H70.0001V0H44.1987Z" fill="#F9F9F9"/>
<path d="M46.788 39.6666V48.1832C46.8176 49.643 46.3412 51.068 45.4397 52.2163C44.5382 53.3647 43.2672 54.1656 41.8424 54.4832C40.944 54.6623 40.0171 54.6403 39.1282 54.4186C38.2394 54.197 37.4106 53.7813 36.7014 53.2013C35.9922 52.6214 35.4202 51.8916 35.0264 51.0643C34.6326 50.237 34.4269 49.3328 34.4239 48.4165V39.6666H30.3414V35.5832H21.8498C20.3874 35.6138 18.9594 35.1382 17.8074 34.2368C16.6554 33.3354 15.85 32.0636 15.5277 30.6366C15.3679 29.7464 15.4046 28.8321 15.6351 27.9576C15.8656 27.0831 16.2843 26.2696 16.8621 25.5739C17.4398 24.8782 18.1626 24.3172 18.9798 23.9302C19.7971 23.5432 20.689 23.3394 21.5931 23.3333H30.3414V14C26.406 13.6688 22.4452 14.1742 18.719 15.4829C14.9929 16.7917 11.5857 18.8742 8.72145 21.5936C5.85717 24.313 3.60056 27.6078 2.09988 31.2615C0.599197 34.9152 -0.111592 38.8452 0.0142074 42.7932C0.30684 49.9151 3.2666 56.6664 8.30576 61.7066C13.3449 66.7468 20.0949 69.7071 27.2153 69.9998H28.0085C31.8896 70.0133 35.7311 69.2195 39.289 67.6688C42.847 66.118 46.0437 63.8443 48.6762 60.9919C51.3087 58.1394 53.3194 54.7707 54.5807 51.0995C55.842 47.4283 56.3263 43.5349 56.0028 39.6666H46.788ZM24.3926 62.0432H22.0597C18.3899 61.91 14.9065 60.3922 12.3098 57.7951C9.71317 55.1979 8.19573 51.7138 8.06257 48.0432V45.7099L12.7283 45.5932V47.9265C12.8419 50.3653 13.8615 52.6738 15.5874 54.4001C17.3134 56.1264 19.6215 57.1462 22.0597 57.2599H24.3926V62.0432Z" fill="#F9F9F9"/>
</svg>
