<svg width="70" height="70" viewBox="0 0 70 70" fill="none" xmlns="http://www.w3.org/2000/svg">
<path d="M49.6858 60.8284C47.2127 64.4134 43.9744 67.4023 40.2056 69.5785C40.9532 69.8476 41.7405 69.9896 42.5349 69.9985H48.987C49.3408 70.0005 49.6904 69.9216 50.0093 69.768C50.3281 69.6143 50.6078 69.39 50.8272 69.1119C51.045 68.8314 51.1959 68.5049 51.2686 68.1571C51.3413 67.8093 51.3337 67.4495 51.2464 67.1052L49.6858 60.8284Z" fill="#F9F9F9"/>
<path d="M1.70207 60.8284L0.071559 67.1052C-0.0156803 67.4495 -0.0232583 67.8093 0.049403 68.1571C0.122064 68.5049 0.273046 68.8314 0.490833 69.1119C0.717361 69.3995 1.00832 69.6297 1.34015 69.7837C1.67198 69.9377 2.03535 70.0113 2.40086 69.9985H8.82972C9.62409 69.9896 10.4114 69.8476 11.159 69.5785C7.39864 67.3995 4.1685 64.4108 1.70207 60.8284Z" fill="#F9F9F9"/>
<path d="M25.6937 47.6214L22.4094 44.3313L32.0993 34.6012C29.6909 33.0094 26.7784 32.3699 23.9262 32.8065C21.074 33.2432 18.4851 34.7249 16.6612 36.9645C14.8372 39.2042 13.9082 42.0423 14.0539 44.929C14.1997 47.8157 15.41 50.5455 17.4503 52.5893C19.4905 54.6331 22.2155 55.8455 25.0971 55.9915C27.9788 56.1376 30.812 55.2069 33.0477 53.3798C35.2834 51.5526 36.7625 48.9592 37.1984 46.102C37.6343 43.2448 36.9959 40.3272 35.4069 37.9146L25.6937 47.6214Z" fill="#F9F9F9"/>
<path d="M41.9991 44.3314C42.007 48.0099 40.7751 51.5833 38.503 54.473C36.2308 57.3627 33.0515 59.3995 29.4798 60.2536C25.9081 61.1077 22.1532 60.729 18.8231 59.1789C15.493 57.6288 12.7828 54.998 11.1312 51.7126C9.47968 48.4272 8.98354 44.6795 9.72316 41.0764C10.4628 37.4733 12.3948 34.2258 15.2065 31.8598C18.0181 29.4938 21.5447 28.1477 25.2152 28.0397C28.8856 27.9317 32.485 29.0679 35.4305 31.2645L41.2538 25.4544C36.3986 21.4363 30.1856 19.445 23.9039 19.8938C17.6222 20.3425 11.7541 23.1967 7.51721 27.8643C3.28036 32.5318 1.00006 38.6542 1.14948 44.9612C1.29891 51.2681 3.86658 57.2753 8.31971 61.7362C12.7728 66.1971 18.7695 68.7693 25.0654 68.919C31.3613 69.0687 37.473 66.7844 42.1324 62.5401C46.7918 58.2958 49.641 52.4174 50.089 46.1247C50.5369 39.832 48.5491 33.6081 44.5381 28.7444L38.7381 34.5779C40.8453 37.3924 41.9891 40.8133 41.9991 44.3314Z" fill="#F9F9F9"/>
<path d="M69.9505 15.0008C69.8612 14.6151 69.6753 14.2585 69.4105 13.9646C69.1456 13.6707 68.8104 13.4491 68.4365 13.3208L59.5851 10.3807L56.6502 1.5839C56.5234 1.2093 56.3036 0.873152 56.0115 0.607033C55.7193 0.340913 55.3644 0.153558 54.9802 0.0625705C54.5959 -0.0284173 54.1948 -0.0200516 53.8147 0.086882C53.4345 0.193816 53.0877 0.395807 52.8069 0.673878L44.9572 8.53736C44.0374 9.45529 43.3911 10.6118 43.0908 11.877C42.7904 13.1423 42.8479 14.4664 43.2568 15.7008L45.1901 21.511L41.2536 25.4544C42.4562 26.4374 43.5566 27.5397 44.5379 28.7444L48.4744 24.801L54.2744 26.7377C54.9896 26.9675 55.736 27.0856 56.4872 27.0877C58.3399 27.0861 60.1161 26.3475 61.4253 25.0344L69.275 17.1709C69.563 16.8968 69.7762 16.5536 69.8944 16.1738C70.0126 15.794 70.0319 15.3902 69.9505 15.0008Z" fill="#F9F9F9"/>
</svg>
