<svg width="70" height="70" viewBox="0 0 70 70" fill="none" xmlns="http://www.w3.org/2000/svg">
<path d="M9.33333 0H4.66667C2.08934 0 0 2.08934 0 4.66667V9.33333C0 11.9107 2.08934 14 4.66667 14H9.33333C11.9107 14 14 11.9107 14 9.33333V4.66667C14 2.08934 11.9107 0 9.33333 0Z" fill="#F9F9F9"/>
<path d="M65.3333 0H60.6667C58.0893 0 56 2.08934 56 4.66667V9.33333C56 11.9107 58.0893 14 60.6667 14H65.3333C67.9107 14 70 11.9107 70 9.33333V4.66667C70 2.08934 67.9107 0 65.3333 0Z" fill="#F9F9F9"/>
<path d="M9.33333 56H4.66667C2.08934 56 0 58.0893 0 60.6667V65.3333C0 67.9107 2.08934 70 4.66667 70H9.33333C11.9107 70 14 67.9107 14 65.3333V60.6667C14 58.0893 11.9107 56 9.33333 56Z" fill="#F9F9F9"/>
<path d="M65.3333 56H60.6667C58.0893 56 56 58.0893 56 60.6667V65.3333C56 67.9107 58.0893 70 60.6667 70H65.3333C67.9107 70 70 67.9107 70 65.3333V60.6667C70 58.0893 67.9107 56 65.3333 56Z" fill="#F9F9F9"/>
<path d="M18.6667 60.6666H51.3333V65.3333H18.6667V60.6666Z" fill="#F9F9F9"/>
<path d="M18.6667 4.66663H51.3333V9.33329H18.6667V4.66663Z" fill="#F9F9F9"/>
<path d="M4.66666 18.6666H9.33332V51.3333H4.66666V18.6666Z" fill="#F9F9F9"/>
<path d="M60.6667 18.6666H65.3333V51.3333H60.6667V18.6666Z" fill="#F9F9F9"/>
<path d="M35 46.6667C33.5422 46.6736 32.1201 46.2159 30.94 45.36L16.3333 35V42C16.3351 42.3702 16.4248 42.7346 16.5952 43.0633C16.7656 43.3919 17.0118 43.6753 17.3133 43.89L33.6467 55.5567C34.0419 55.838 34.5149 55.9892 35 55.9892C35.4851 55.9892 35.9582 55.838 36.3533 55.5567L52.6867 43.89C52.9882 43.6753 53.2344 43.3919 53.4048 43.0633C53.5752 42.7346 53.665 42.3702 53.6667 42V35L39.06 45.43C37.8714 46.261 36.45 46.694 35 46.6667Z" fill="#F9F9F9"/>
<path d="M52.6866 26.11L36.3533 14.4433C35.9581 14.1619 35.4851 14.0107 35 14.0107C34.5149 14.0107 34.0418 14.1619 33.6466 14.4433L17.3133 26.11C17.0145 26.3263 16.7712 26.6104 16.6035 26.9389C16.4358 27.2675 16.3483 27.6311 16.3483 28C16.3483 28.3689 16.4358 28.7325 16.6035 29.061C16.7712 29.3896 17.0145 29.6736 17.3133 29.89L33.6466 41.5566C34.0418 41.838 34.5149 41.9892 35 41.9892C35.4851 41.9892 35.9581 41.838 36.3533 41.5566L52.6866 29.89C52.9854 29.6736 53.2287 29.3896 53.3964 29.061C53.5642 28.7325 53.6516 28.3689 53.6516 28C53.6516 27.6311 53.5642 27.2675 53.3964 26.9389C53.2287 26.6104 52.9854 26.3263 52.6866 26.11Z" fill="#F9F9F9"/>
</svg>
