<svg width="170" height="30" viewBox="0 0 170 30" fill="none" xmlns="http://www.w3.org/2000/svg">
<path d="M166.558 21.4244V6.81567H170V21.4244H166.558Z" fill="#F9F9F9"/>
<path d="M148.336 21.4244L154.965 6.81567H158.365L165.015 21.4244H161.403L155.964 8.52698H157.324L151.863 21.4244H148.336ZM151.651 18.2939L152.564 15.727H160.213L161.148 18.2939H151.651Z" fill="#F9F9F9"/>
<path d="M139.405 25.64C138.81 25.64 138.223 25.5496 137.642 25.3687C137.061 25.1878 136.587 24.9374 136.218 24.6174L137.429 22.3009C137.684 22.5235 137.975 22.6974 138.301 22.8226C138.64 22.9478 138.973 23.0104 139.299 23.0104C139.767 23.0104 140.135 22.8991 140.404 22.6765C140.687 22.4678 140.942 22.1131 141.169 21.6122L141.764 20.2348L142.019 19.88L146.119 10.1965H149.306L144.143 22.1131C143.775 23.0174 143.35 23.727 142.869 24.2418C142.401 24.7565 141.877 25.1183 141.296 25.327C140.73 25.5357 140.099 25.64 139.405 25.64ZM141.36 21.8626L136.261 10.1965H139.682L143.633 19.5878L141.36 21.8626Z" fill="#F9F9F9"/>
<path d="M128.655 21.4244L123.853 10.1965H127.274L131.268 19.8591H129.568L133.712 10.1965H136.899L132.076 21.4244H128.655Z" fill="#F9F9F9"/>
<path d="M116.247 21.4244L111.445 10.1965H114.866L118.86 19.8591H117.161L121.304 10.1965H124.491L119.668 21.4244H116.247Z" fill="#F9F9F9"/>
<path d="M107.251 21.4246V19.2333L107.038 18.7533V14.8298C107.038 14.1341 106.819 13.5915 106.379 13.202C105.954 12.8124 105.296 12.6176 104.403 12.6176C103.794 12.6176 103.192 12.715 102.597 12.9098C102.017 13.0907 101.521 13.3411 101.11 13.6611L99.9204 11.3863C100.544 10.955 101.294 10.6211 102.173 10.3846C103.051 10.148 103.943 10.0298 104.85 10.0298C106.592 10.0298 107.945 10.4333 108.908 11.2402C109.871 12.0472 110.353 13.3063 110.353 15.0176V21.4246H107.251ZM103.766 21.5915C102.874 21.5915 102.109 21.4454 101.471 21.1533C100.834 20.8472 100.345 20.4367 100.005 19.922C99.6654 19.4072 99.4955 18.8298 99.4955 18.1898C99.4955 17.522 99.6583 16.9376 99.9841 16.4367C100.324 15.9359 100.855 15.5463 101.578 15.268C102.3 14.9759 103.242 14.8298 104.403 14.8298H107.442V16.7289H104.765C103.986 16.7289 103.447 16.8541 103.15 17.1046C102.867 17.355 102.725 17.668 102.725 18.0437C102.725 18.4611 102.888 18.795 103.214 19.0454C103.554 19.282 104.014 19.4002 104.595 19.4002C105.147 19.4002 105.643 19.275 106.082 19.0246C106.521 18.7602 106.84 18.3776 107.038 17.8767L107.548 19.3794C107.307 20.1028 106.868 20.6524 106.231 21.028C105.593 21.4037 104.772 21.5915 103.766 21.5915Z" fill="#F9F9F9"/>
<path d="M91.8106 21.6748C90.6207 21.6748 89.4805 21.5217 88.3898 21.2156C87.2992 20.8956 86.421 20.4852 85.7552 19.9843L86.9238 17.4382C87.5612 17.8834 88.3119 18.2521 89.176 18.5443C90.0542 18.8226 90.9395 18.9617 91.8318 18.9617C92.5117 18.9617 93.0571 18.8991 93.4678 18.7739C93.8928 18.6348 94.2044 18.4469 94.4027 18.2104C94.601 17.9739 94.7001 17.7026 94.7001 17.3965C94.7001 17.0069 94.5443 16.7008 94.2327 16.4782C93.9211 16.2417 93.5103 16.0539 93.0004 15.9148C92.4905 15.7617 91.9239 15.6226 91.3006 15.4974C90.6916 15.3582 90.0754 15.1913 89.4522 14.9965C88.8431 14.8017 88.2836 14.5513 87.7737 14.2452C87.2637 13.9391 86.8459 13.5356 86.5201 13.0348C86.2085 12.5339 86.0527 11.8939 86.0527 11.1148C86.0527 10.28 86.2793 9.52171 86.7326 8.83997C87.2 8.14432 87.8941 7.59475 88.8148 7.19127C89.7496 6.77388 90.9182 6.56519 92.3205 6.56519C93.2554 6.56519 94.1761 6.67649 95.0826 6.8991C95.9891 7.10779 96.7894 7.42779 97.4835 7.8591L96.4211 10.4261C95.7271 10.0365 95.033 9.75127 94.339 9.5704C93.6449 9.37562 92.965 9.27823 92.2993 9.27823C91.6335 9.27823 91.0882 9.35475 90.6632 9.50779C90.2383 9.66084 89.9338 9.86258 89.7496 10.113C89.5655 10.3495 89.4734 10.6278 89.4734 10.9478C89.4734 11.3234 89.6292 11.6295 89.9408 11.8661C90.2525 12.0887 90.6632 12.2695 91.1732 12.4087C91.6831 12.5478 92.2426 12.6869 92.8517 12.8261C93.4749 12.9652 94.0911 13.1252 94.7001 13.3061C95.3234 13.4869 95.89 13.7304 96.3999 14.0365C96.9098 14.3426 97.3206 14.7461 97.6322 15.2469C97.958 15.7478 98.1209 16.3808 98.1209 17.1461C98.1209 17.9669 97.8872 18.7182 97.4197 19.4C96.9523 20.0817 96.2512 20.6313 95.3163 21.0487C94.3956 21.4661 93.227 21.6748 91.8106 21.6748Z" fill="#F9F9F9"/>
<path d="M78.9476 10.0298C79.8541 10.0298 80.6615 10.2107 81.3697 10.5724C82.0921 10.9202 82.6587 11.4628 83.0695 12.2002C83.4803 12.9237 83.6856 13.8559 83.6856 14.9967V21.4246H80.3711V15.4976C80.3711 14.5933 80.1658 13.9254 79.755 13.4941C79.3584 13.0628 78.7918 12.8472 78.0552 12.8472C77.5311 12.8472 77.0566 12.9585 76.6317 13.1811C76.2209 13.3898 75.8951 13.7167 75.6543 14.162C75.4277 14.6072 75.3144 15.1776 75.3144 15.8733V21.4246H71.9999V10.1967H75.1657V13.3063L74.5707 12.3672C74.9815 11.6159 75.5693 11.0385 76.3342 10.635C77.0991 10.2315 77.9702 10.0298 78.9476 10.0298Z" fill="#F9F9F9"/>
<path d="M65.6093 21.4243V10.1965H68.9238V21.4243H65.6093ZM67.2665 8.6313C66.6574 8.6313 66.1617 8.45739 65.7792 8.10957C65.3968 7.76174 65.2056 7.33044 65.2056 6.81565C65.2056 6.30087 65.3968 5.86957 65.7792 5.52174C66.1617 5.17391 66.6574 5 67.2665 5C67.8756 5 68.3713 5.16696 68.7538 5.50087C69.1362 5.82087 69.3275 6.23826 69.3275 6.75304C69.3275 7.29565 69.1362 7.74783 68.7538 8.10957C68.3855 8.45739 67.8898 8.6313 67.2665 8.6313Z" fill="#F9F9F9"/>
<path d="M57.1259 21.5915C55.9078 21.5915 54.8242 21.3411 53.8752 20.8402C52.9403 20.3393 52.1967 19.6576 51.6442 18.795C51.106 17.9185 50.8369 16.9237 50.8369 15.8107C50.8369 14.6837 51.106 13.6889 51.6442 12.8263C52.1967 11.9498 52.9403 11.268 53.8752 10.7811C54.8242 10.2802 55.9078 10.0298 57.1259 10.0298C58.3299 10.0298 59.4064 10.2802 60.3554 10.7811C61.3045 11.268 62.0481 11.9428 62.5864 12.8054C63.1246 13.668 63.3937 14.6698 63.3937 15.8107C63.3937 16.9237 63.1246 17.9185 62.5864 18.795C62.0481 19.6576 61.3045 20.3393 60.3554 20.8402C59.4064 21.3411 58.3299 21.5915 57.1259 21.5915ZM57.1259 18.9202C57.6783 18.9202 58.1741 18.795 58.6132 18.5446C59.0523 18.2941 59.3993 17.9394 59.6543 17.4802C59.9093 17.0072 60.0367 16.4507 60.0367 15.8107C60.0367 15.1567 59.9093 14.6002 59.6543 14.1411C59.3993 13.682 59.0523 13.3272 58.6132 13.0767C58.1741 12.8263 57.6783 12.7011 57.1259 12.7011C56.5735 12.7011 56.0777 12.8263 55.6386 13.0767C55.1995 13.3272 54.8454 13.682 54.5763 14.1411C54.3213 14.6002 54.1939 15.1567 54.1939 15.8107C54.1939 16.4507 54.3213 17.0072 54.5763 17.4802C54.8454 17.9394 55.1995 18.2941 55.6386 18.5446C56.0777 18.795 56.5735 18.9202 57.1259 18.9202Z" fill="#F9F9F9"/>
<path d="M43.85 21.6748C42.7027 21.6748 41.6332 21.4939 40.6417 21.1321C39.6644 20.7565 38.8145 20.2278 38.0921 19.5461C37.3697 18.8643 36.8031 18.0643 36.3923 17.1461C35.9957 16.2278 35.7974 15.2191 35.7974 14.12C35.7974 13.0208 35.9957 12.0121 36.3923 11.0939C36.8031 10.1756 37.3697 9.37562 38.0921 8.69388C38.8286 8.01214 39.6856 7.4904 40.663 7.12866C41.6403 6.75301 42.7097 6.56519 43.8712 6.56519C45.1602 6.56519 46.3217 6.78779 47.3557 7.23301C48.4039 7.66432 49.2821 8.30432 49.9903 9.15301L47.7807 11.1565C47.2707 10.5861 46.7041 10.1617 46.0809 9.88345C45.4577 9.59127 44.7778 9.44519 44.0412 9.44519C43.3471 9.44519 42.7097 9.55649 42.129 9.7791C41.5482 10.0017 41.0454 10.3217 40.6205 10.7391C40.1955 11.1565 39.8627 11.6504 39.6219 12.2208C39.3952 12.7913 39.2819 13.4243 39.2819 14.12C39.2819 14.8156 39.3952 15.4487 39.6219 16.0191C39.8627 16.5895 40.1955 17.0834 40.6205 17.5008C41.0454 17.9182 41.5482 18.2382 42.129 18.4608C42.7097 18.6834 43.3471 18.7948 44.0412 18.7948C44.7778 18.7948 45.4577 18.6556 46.0809 18.3774C46.7041 18.0852 47.2707 17.6469 47.7807 17.0626L49.9903 19.0661C49.2821 19.9148 48.4039 20.5617 47.3557 21.0069C46.3217 21.4521 45.1531 21.6748 43.85 21.6748Z" fill="#F9F9F9"/>
<path d="M30 9.75001C30 14.64 26.4 18.675 21.72 19.38V19.29C21.255 13.47 16.5301 8.74501 10.6651 8.28001H10.6201C11.3251 3.6 15.3601 0 20.25 0C25.635 0 30 4.365 30 9.75001Z" fill="#F9F9F9"/>
<path d="M19.4699 19.47C19.0949 14.715 15.2849 10.905 10.53 10.53C10.275 10.515 10.005 10.5 9.74995 10.5C4.36498 10.5 0 14.865 0 20.25C0 25.635 4.36498 30 9.74995 30C15.1349 30 19.4999 25.635 19.4999 20.25C19.4999 19.995 19.4849 19.725 19.4699 19.47ZM11.0699 21.57L9.74995 24L8.42996 21.57L5.99997 20.25L8.42996 18.93L9.74995 16.5L11.0699 18.93L13.4999 20.25L11.0699 21.57Z" fill="#F9F9F9"/>
</svg>
